# xmcd CD database file
#
# Track frame offsets:
#	150
#	20386
#	45532
#	68079
#	93010
#	113793
#	131631
#	154281
#	171650
#	191585
#
# Disc length: 2914 seconds
#
# Revision: 0
# Processed by: cddbd v1.4PL0 Copyright (c) Steve Scherf et al.
# Submitted via: CDex 1.50Beta7
#
DISCID=820b600a
DTITLE=Various Artist - Jazz Tunes
DYEAR=1900
DGENRE=Jazz
TTITLE0=A Fine Romance - Kern/Fields
TTITLE1=Smoke Gets In Your Eyes - Kern/Harbach
TTITLE2=The Way You Look Tonight - Kern/Fields
TTITLE3=Beyond the Sea - Lawrence/Trenet
TTITLE4=Let's Take the Long Way Home - Mercer/Arlen
TTITLE5=Long Ago (and Far Away) - Kern/I. Gershwin
TTITLE6=All the Things You Are - Kern/Hammerstein II
TTITLE7=Tonight - Bernstein/Sondheim
TTITLE8=True Love Ways - Petty/Holly
TTITLE9=Sentimental Journey - Green/Brown/Homer
EXTD=
EXTT0=
EXTT1=
EXTT2=
EXTT3=
EXTT4=
EXTT5=
EXTT6=
EXTT7=
EXTT8=
EXTT9=
PLAYORDER=
